HIERARCHY
ROOT hip
{
	OFFSET 0.00000 0.00000 0.00000
	CHANNELS 6 Xposition Yposition Zposition Zrotation Yrotation Xrotation 
	JOINT rightuplegdummy
	{
		OFFSET 0 0 0
		CHANNELS 3 Zrotation Yrotation Xrotation
		JOINT rightupleg
		{
			OFFSET -3.52197 -3.41223 0.04002
			CHANNELS 3 Zrotation Yrotation Xrotation
			JOINT rightleg
			{
				OFFSET 0.00006 -17.42390 1.60435
				CHANNELS 3 Zrotation Yrotation Xrotation
				JOINT rightfoot
				{
					OFFSET 0.06153 -16.50078 -1.63901
					CHANNELS 3 Zrotation Yrotation Xrotation
					JOINT righttoes
					{
						OFFSET 0.00298 -1.73825 3.34613
						CHANNELS 3 Zrotation Yrotation Xrotation
						End Site
						{
							OFFSET 0.00480 -0.05416 3.85043
						}
					}
				}
			}
		}
	}
	JOINT spinedummy
	{
		OFFSET 0 0 0
		CHANNELS 3 Zrotation Yrotation Xrotation
		JOINT spine
		{
			OFFSET 0.00000 4.68130 0.00000
			CHANNELS 3 Zrotation Yrotation Xrotation
			JOINT spine1
			{
				OFFSET -0.00000 10.10138 0.05002
				CHANNELS 3 Zrotation Yrotation Xrotation
				JOINT headdummy
				{
					OFFSET 0 0 0
					CHANNELS 3 Zrotation Yrotation Xrotation
					JOINT head
					{
						OFFSET -0.00000 3.43865 0.00438
						CHANNELS 3 Zrotation Yrotation Xrotation
						End Site
						{
							OFFSET -0.11417 5.02924 0.98962
						}
					}
				}
				JOINT leftshoulder1dummy
				{
					OFFSET 0 0 0
					CHANNELS 3 Zrotation Yrotation Xrotation
					JOINT leftshoulder1
					{
						OFFSET 3.53937 -0.14262 -0.08662
						CHANNELS 3 Zrotation Yrotation Xrotation
						JOINT leftarm
						{
							OFFSET 4.04833 -0.00133 0.12681
							CHANNELS 3 Zrotation Yrotation Xrotation
							JOINT leftforearm
							{
								OFFSET 10.33880 -0.01036 -0.55515
								CHANNELS 3 Zrotation Yrotation Xrotation
								JOINT lefthand
								{
									OFFSET 8.69677 0.07543 0.40060
									CHANNELS 3 Zrotation Yrotation Xrotation
									End Site
									{
										OFFSET 5.28377 -0.21905 0.59205
									}
								}
							}
						}
					}
				}
				JOINT rightshoulderdummy
				{
					OFFSET 0 0 0
					CHANNELS 3 Zrotation Yrotation Xrotation
					JOINT rightshoulder
					{
						OFFSET -3.53937 -0.14262 -0.08660
						CHANNELS 3 Zrotation Yrotation Xrotation
						JOINT rightarm
						{
							OFFSET -4.04833 -0.00133 0.12683
							CHANNELS 3 Zrotation Yrotation Xrotation
							JOINT rightforearm
							{
								OFFSET -10.37987 -0.01039 -0.55511
								CHANNELS 3 Zrotation Yrotation Xrotation
								JOINT righthand
								{
									OFFSET -8.67398 0.07538 0.40058
									CHANNELS 3 Zrotation Yrotation Xrotation
									End Site
									{
										OFFSET -5.24810 -0.21916 0.59204
									}
								}
							}
						}
					}
				}
			}
		}
	}
	JOINT leftuplegdummy
	{
		OFFSET 0 0 0
		CHANNELS 3 Zrotation Yrotation Xrotation
		JOINT leftupleg
		{
			OFFSET 3.52197 -3.41223 0.04002
			CHANNELS 3 Zrotation Yrotation Xrotation
			JOINT leftleg
			{
				OFFSET -0.00012 -17.42399 1.60337
				CHANNELS 3 Zrotation Yrotation Xrotation
				JOINT leftfoot
				{
					OFFSET -0.09972 -16.50070 -1.63802
					CHANNELS 3 Zrotation Yrotation Xrotation
					JOINT lefttoes
					{
						OFFSET -0.01575 -1.73823 3.34611
						CHANNELS 3 Zrotation Yrotation Xrotation
						End Site
						{
							OFFSET 0.03150 -0.01868 3.85031
						}
					}
				}
			}
		}
	}
}
MOTION
Frames: 6
Frame Time: 0.033333
-1.6040 39.0410 0.5646 -173.3420 72.2183 -165.8740 0.0000 -0.0000 0.0000 -4.6883 -4.2879 -9.0240 -1.3516 -1.6736 28.6202 10.5738 0.3927 -16.3998 0.0000 0.0000 0.0000 0.0000 -0.0000 0.0000 6.0350 1.6781 -4.6209 -4.1187 2.4891 5.9352 -0.0000 -0.0000 -0.0000 -18.9606 39.5493 -26.6778 -0.0000 -0.0000 -0.0000 -34.9870 -12.2843 6.4741 -38.7071 4.5124 6.4918 178.7234 -61.4667 -156.6470 3.0790 -2.0544 -0.1788 -0.0000 -0.0000 -0.0000 30.5398 6.2251 3.5556 34.9143 -10.9859 19.4618 -178.6775 70.7637 -160.3847 -3.5184 9.2833 -0.3665 0.0000 -0.0000 0.0000 20.4971 -2.4951 -17.8720 2.9490 4.0609 26.9260 -23.7908 2.3582 -0.1661 0.0000 0.0000 0.0000
-1.7343 38.1523 1.2269 -167.0270 74.8118 -159.8230 0.0000 -0.0000 0.0000 -1.9165 -0.6763 -11.3379 -3.6603 -4.4085 32.2256 6.7294 0.5343 -21.7772 0.0000 0.0000 0.0000 0.0000 -0.0000 0.0000 9.8528 3.3502 -5.3879 -6.8351 4.6565 8.0158 -0.0000 -0.0000 -0.0000 -19.5216 38.8125 -29.0233 -0.0000 -0.0000 -0.0000 -36.9297 -12.7341 6.9816 -36.1355 1.2378 3.9198 178.3863 -63.6215 -154.0101 4.2429 -1.8030 -0.2464 -0.0000 -0.0000 -0.0000 30.7819 6.0702 3.5220 33.0411 -7.3064 18.1256 -178.1257 73.6697 -157.7164 -3.7516 9.5655 -0.4023 0.0000 -0.0000 0.0000 22.1695 -2.0324 -16.3215 5.6545 8.2938 27.1151 -22.7223 1.0203 -6.4501 0.0000 0.0000 0.0000
-1.6754 38.0257 1.8781 -169.0190 76.3558 -161.3660 0.0000 -0.0000 0.0000 -1.3795 3.8006 -12.7678 -6.7913 -7.9570 34.1184 6.4580 0.5258 -22.1032 0.0000 0.0000 0.0000 0.0000 -0.0000 0.0000 6.8560 3.8948 -6.6765 -5.1200 4.9186 8.9323 -0.0000 -0.0000 -0.0000 -18.2715 39.2742 -29.6771 -0.0000 -0.0000 -0.0000 -37.7285 -12.8724 7.1765 -36.9145 2.4952 1.5219 178.0759 -63.4189 -150.5049 3.5368 -2.0617 -0.2085 -0.0000 -0.0000 -0.0000 31.9434 6.1874 3.6767 33.8040 -7.7872 16.0070 -177.4119 74.8884 -153.8408 -1.6995 10.2735 -0.1412 0.0000 -0.0000 0.0000 21.8125 -3.3525 -15.9118 7.8387 12.0874 26.4918 -22.1274 1.3017 -4.8452 0.0000 0.0000 0.0000
-1.4919 38.7707 2.2450 -175.9180 73.2655 -168.1860 0.0000 -0.0000 0.0000 -1.8498 2.2545 -10.5756 -6.5821 -8.7255 30.6318 7.4273 0.4364 -19.0897 0.0000 0.0000 0.0000 0.0000 -0.0000 0.0000 2.7060 2.0379 -7.5856 -1.5553 2.4369 8.9290 -0.0000 -0.0000 -0.0000 -17.5256 40.2900 -29.6909 -0.0000 -0.0000 -0.0000 -36.3694 -12.4844 6.7824 -40.6749 6.5184 1.3223 178.2055 -61.7806 -150.9417 3.2389 -2.0809 -0.1897 -0.0000 -0.0000 -0.0000 32.3523 6.2679 3.7471 38.4138 -12.3174 14.6721 -177.7159 73.0561 -154.1416 -1.3898 10.3547 -0.0991 0.0000 -0.0000 0.0000 20.9047 -6.5096 -16.8253 8.7185 14.9392 24.1615 -19.9018 2.6071 3.7107 0.0000 0.0000 0.0000
-1.2534 40.0582 2.2856 -177.6350 70.0118 -169.6340 0.0000 -0.0000 0.0000 -2.0705 -3.4713 -7.6441 -3.6780 -6.0368 24.0061 8.0932 -0.0327 -11.4265 0.0000 0.0000 0.0000 0.0000 -0.0000 0.0000 2.4732 0.7086 -9.2267 -0.8196 0.8363 8.8791 -0.0000 -0.0000 -0.0000 -16.8052 41.0986 -26.8864 -0.0000 -0.0000 -0.0000 -35.5918 -12.3427 6.5955 -43.0087 10.9100 2.9307 178.4754 -60.5948 -153.4512 3.6633 -1.9764 -0.2146 -0.0000 -0.0000 -0.0000 32.2453 6.1565 3.6942 42.9594 -18.4331 14.2226 -178.2582 70.7168 -156.8507 -2.8381 9.6357 -0.2850 0.0000 -0.0000 0.0000 19.4465 -4.3232 -16.9570 7.2574 15.4216 19.0805 -15.6493 3.4355 14.0401 0.0000 0.0000 0.0000
-1.0487 41.2076 2.2448 -178.9490 70.6391 -169.7590 0.0000 -0.0000 0.0000 -3.3704 -5.9336 -7.6489 -1.0606 -1.7350 20.3066 10.3202 -0.7551 -3.1230 0.0000 0.0000 0.0000 0.0000 -0.0000 0.0000 2.3716 1.2243 -11.9362 -1.1552 1.3220 8.8907 -0.0000 -0.0000 -0.0000 -14.7545 41.9111 -21.7605 -0.0000 -0.0000 -0.0000 -35.5705 -12.4198 6.6243 -44.1996 14.6025 4.0311 178.6038 -60.0740 -154.7077 1.7311 -2.3129 -0.0945 -0.0000 -0.0000 -0.0000 31.9727 6.1088 3.6498 44.7892 -23.6300 13.6204 -178.5257 69.1449 -158.2407 -1.6872 9.8353 -0.1369 0.0000 -0.0000 0.0000 15.7412 5.2262 -16.0636 4.0471 9.5950 13.6049 -16.1997 4.1911 18.2677 0.0000 0.0000 0.0000
